<?xml version="1.0" encoding="UTF-8" standalone="no"?>
<svg
   version="1.1"
   viewBox="0 0 1024 1536"
   width="1024"
   height="1536"
   id="svg43"
   sodipodi:docname="logo_green.svg"
   inkscape:version="1.4.2 (f4327f4, 2025-05-13)"
   xmlns:inkscape="http://www.inkscape.org/namespaces/inkscape"
   xmlns:sodipodi="http://sodipodi.sourceforge.net/DTD/sodipodi-0.dtd"
   xmlns="http://www.w3.org/2000/svg"
   xmlns:svg="http://www.w3.org/2000/svg">
  <sodipodi:namedview
     id="namedview43"
     pagecolor="#ffffff"
     bordercolor="#000000"
     borderopacity="0.25"
     inkscape:showpageshadow="2"
     inkscape:pageopacity="0.0"
     inkscape:pagecheckerboard="0"
     inkscape:deskcolor="#d1d1d1"
     inkscape:zoom="2.0716265"
     inkscape:cx="462.19722"
     inkscape:cy="731.06809"
     inkscape:window-width="1920"
     inkscape:window-height="1001"
     inkscape:window-x="-9"
     inkscape:window-y="-9"
     inkscape:window-maximized="1"
     inkscape:current-layer="layer2" />
  <defs
     id="defs43">
    <inkscape:path-effect
       effect="simplify"
       id="path-effect119"
       is_visible="true"
       lpeversion="1.3"
       threshold="3"
       steps="38.294444"
       smooth_angles="360"
       helper_size="4.5"
       simplify_individual_paths="false"
       simplify_just_coalesce="false" />
    <inkscape:path-effect
       effect="simplify"
       id="path-effect116"
       is_visible="true"
       lpeversion="1.3"
       threshold="5"
       steps="1"
       smooth_angles="360"
       helper_size="10"
       simplify_individual_paths="false"
       simplify_just_coalesce="false" />
    <inkscape:path-effect
       effect="simplify"
       id="path-effect89"
       is_visible="true"
       lpeversion="1.3"
       threshold="45.0055"
       steps="6"
       smooth_angles="360"
       helper_size="10"
       simplify_individual_paths="false"
       simplify_just_coalesce="false" />
    <inkscape:path-effect
       effect="skeletal"
       id="path-effect49"
       is_visible="true"
       lpeversion="1"
       pattern="#path7"
       copytype="repeated_stretched"
       prop_scale="1.82"
       scale_y_rel="false"
       spacing="40"
       normal_offset="0"
       tang_offset="0"
       prop_units="false"
       vertical_pattern="false"
       hide_knot="false"
       fuse_tolerance="0" />
    <inkscape:path-effect
       effect="simplify"
       id="path-effect63"
       is_visible="false"
       lpeversion="1.3"
       threshold="0.5"
       steps="50"
       smooth_angles="360"
       helper_size="2"
       simplify_individual_paths="false"
       simplify_just_coalesce="false" />
    <inkscape:path-effect
       effect="simplify"
       id="path-effect62"
       is_visible="true"
       lpeversion="1.3"
       threshold="10"
       steps="5"
       smooth_angles="360"
       helper_size="10"
       simplify_individual_paths="false"
       simplify_just_coalesce="false" />
    <inkscape:path-effect
       effect="simplify"
       id="path-effect51"
       is_visible="true"
       lpeversion="1.3"
       threshold="5"
       steps="20"
       smooth_angles="240"
       helper_size="6"
       simplify_individual_paths="false"
       simplify_just_coalesce="false" />
    <inkscape:path-effect
       effect="simplify"
       id="path-effect50"
       is_visible="false"
       lpeversion="1.3"
       threshold="10"
       steps="36.864458"
       smooth_angles="360"
       helper_size="10"
       simplify_individual_paths="false"
       simplify_just_coalesce="false" />
    <inkscape:path-effect
       effect="simplify"
       id="path-effect48"
       is_visible="false"
       lpeversion="1.3"
       threshold="10"
       steps="36.864458"
       smooth_angles="360"
       helper_size="10"
       simplify_individual_paths="false"
       simplify_just_coalesce="false" />
    <inkscape:path-effect
       effect="fillet_chamfer"
       id="path-effect47"
       is_visible="true"
       lpeversion="1"
       nodesatellites_param="F,0,0,1,0,0,0,1 @ F,0,0,1,0,0,0,1 @ F,0,0,1,0,0,0,1 @ F,0,0,1,0,0,0,1 @ F,0,0,1,0,0,0,1 @ F,0,0,1,0,0,0,1 @ F,0,0,1,0,0,0,1 @ F,0,0,1,0,0,0,1 @ F,0,0,1,0,0,0,1 @ F,0,0,1,0,0,0,1 @ F,0,0,1,0,0,0,1 @ F,0,0,1,0,0,0,1"
       radius="0"
       unit="px"
       method="auto"
       mode="F"
       chamfer_steps="1"
       flexible="false"
       use_knot_distance="true"
       apply_no_radius="true"
       apply_with_radius="true"
       only_selected="false"
       hide_knots="false" />
    <linearGradient
       id="swatch44"
       inkscape:swatch="solid">
      <stop
         style="stop-color:#000000;stop-opacity:0;"
         offset="0"
         id="stop44" />
    </linearGradient>
  </defs>
  <g
     inkscape:groupmode="layer"
     id="layer1"
     inkscape:label="Feathers"
     style="display:inline">
    <path
       id="path104"
       style="display:inline;fill:#063007;fill-opacity:1;stroke-width:0.746433;stroke:none"
       inkscape:label="feather_1_a"
       inkscape:transform-center-y="30.255377"
       d="m 80.443032,877.18313 c 0.786043,3.22514 2.034545,6.33809 3.437829,9.34645 1.367348,2.93132 3.001983,5.74719 4.82537,8.4188 2.140984,3.13696 4.431508,6.21686 7.140562,8.87869 2.50989,2.46614 5.445667,4.47034 8.341007,6.46993 2.62184,1.81071 5.27585,3.6215 8.15388,4.98886 3.51769,1.67126 7.25653,2.88191 11.02254,3.87409 4.03321,1.06257 8.1605,1.85457 12.31651,2.20589 4.24382,0.35875 8.53601,0.28791 12.77641,-0.1093 4.71332,-0.44151 9.39082,-1.34387 13.97684,-2.51806 3.68714,-0.94405 7.29071,-2.21888 10.82755,-3.62493 5.33791,-2.12206 10.36642,-4.95821 15.63717,-7.24199 21.92312,-9.49913 39.85463,-18.08659 66.45694,-26.85487 -2.59754,-10.39912 -4.56463,-20.9544 -5.91713,-31.57777 -1.30839,-10.27691 -2.00453,-20.6398 -2.11269,-31.0077 -25.69143,-1.79235 -42.83143,-5.52393 -64.11118,-9.15385 -7.75606,-1.32304 -15.35428,-3.54844 -23.15193,-4.5989 -5.02934,-0.67753 -10.11223,-1.22795 -15.18516,-1.09112 -5.96929,0.16101 -11.91671,1.07876 -17.77313,2.24527 -1.72546,0.34369 -3.41974,0.84348 -5.09028,1.39541 -2.92226,0.96549 -5.84446,1.98552 -8.6059,3.34428 -2.19875,1.08189 -4.26044,2.43195 -6.29072,3.80416 -3.32396,2.24657 -6.66914,4.51516 -9.619227,7.23413 -1.944855,1.79249 -3.624381,3.86126 -5.269503,5.93226 -2.519308,3.1715 -5.121608,6.33953 -7.02337,9.91564 -2.247165,4.22562 -3.935611,8.7828 -5.074531,13.43129 -0.976509,3.98561 -1.478367,8.11949 -1.465344,12.22296 0.015,4.72738 0.658075,9.47742 1.777487,14.07038 z m 26.189528,-6.69416 c -0.59972,-3.44035 -0.9435,-6.9891 -0.5692,-10.46121 0.34668,-3.21591 1.31381,-6.37796 2.58011,-9.35432 1.11062,-2.61045 2.6686,-5.02892 4.34186,-7.3198 1.56002,-2.13584 3.27565,-4.19442 5.26949,-5.93226 2.93585,-2.5589 6.24213,-4.72673 9.71279,-6.49358 2.95827,-1.506 6.12131,-2.65178 9.34645,-3.43782 3.62602,-0.88375 7.3768,-1.32823 11.10821,-1.4033 3.56171,-0.0717 7.13338,0.33215 10.64832,0.91191 3.41934,0.56399 6.81424,1.36968 10.09488,2.48654 4.12019,1.40268 7.99911,3.43608 11.95017,5.26163 12.84426,5.93458 14.84919,15.29762 38.20486,18.49694 -21.11867,9.62395 -20.91471,20.90234 -32.72272,29.71428 -4.40814,3.28965 -9.2436,5.99171 -14.11071,8.55388 -2.9946,1.57643 -6.10216,2.94322 -9.2529,4.17838 -1.18117,0.46305 -2.37229,0.92605 -3.60919,1.20831 -4.36635,0.99641 -8.85129,1.70472 -13.32984,1.68395 -3.86254,-0.0179 -7.72732,-0.65404 -11.48242,-1.5589 -3.24526,-0.78201 -6.47558,-1.8012 -9.44788,-3.32064 -2.98054,-1.52365 -5.75783,-3.49178 -8.24745,-5.7294 -2.00164,-1.79904 -3.74368,-3.89756 -5.28526,-6.10361 -1.53498,-2.1966 -2.85788,-4.56145 -3.89771,-7.03126 -0.58726,-1.39487 -1.04196,-2.85875 -1.30186,-4.34972 z"
       inkscape:transform-center-x="218.72011"
       sodipodi:nodetypes="aaaaaaaaaaaacacaaaaaaaaaaaaaaaaaaaaaaaacaaaaaaaaaaa" />
    <path
       d="m 124.20226,865.60367 c -1.22022,-9.04765 3.34287,-21.09582 15.41687,-22.63761 11.05231,-1.41128 31.61267,3.80773 40.40945,15.58511 -4.96022,12.18946 -24.27999,23.10364 -35.34947,24.46872 -10.4377,1.28713 -19.27921,-8.53604 -20.47685,-17.41622 z"
       fill="#063007"
       id="path105"
       inkscape:transform-center-x="365.0523"
       inkscape:transform-center-y="47.633531"
       inkscape:label="feather_1_b"
       sodipodi:nodetypes="accca"
       style="display:inline;fill:#063007;fill-opacity:1;stroke-width:0.746433;stroke:none" />
    <path
       id="path102"
       style="display:inline;fill:#063007;fill-opacity:1;stroke-width:0.746433;stroke:none"
       inkscape:label="feather_2_a"
       inkscape:transform-center-y="-70.48717"
       d="m 93.662754,692.02167 c -0.610791,3.26288 -0.753925,6.6138 -0.712951,9.9331 0.03992,3.2343 0.370966,6.47337 0.933399,9.65864 0.660397,3.74008 1.480564,7.4897 2.854223,11.03051 1.27267,3.2805 3.123583,6.31525 4.939545,9.32916 1.64442,2.72921 3.31814,5.47174 5.3785,7.9023 2.51828,2.97077 5.42768,5.61275 8.45173,8.06679 3.23861,2.62816 6.67433,5.04843 10.31755,7.07888 3.7202,2.07336 7.66127,3.77509 11.68944,5.15805 4.47742,1.5372 9.11185,2.63966 13.77476,3.45671 3.74896,0.6569 7.55787,0.97794 11.35997,1.15192 5.73824,0.26258 11.48837,-0.253 17.23195,-0.16545 23.88983,0.36415 43.76653,-0.0834 71.62024,2.87237 1.91198,-10.54671 4.46281,-20.97632 7.60181,-31.21507 3.03663,-9.90483 6.66665,-19.63608 10.83461,-29.12992 -22.67768,-12.20595 -36.76353,-22.66028 -54.6642,-34.72552 -6.52445,-4.39755 -12.53371,-9.55256 -19.20824,-13.7188 -4.30494,-2.68715 -8.711,-5.28049 -13.39079,-7.24337 -5.50669,-2.30971 -11.30485,-3.92073 -17.12245,-5.26756 -1.71403,-0.39681 -3.46386,-0.63851 -5.21353,-0.82293 -3.06066,-0.3226 -6.14373,-0.59548 -9.21966,-0.49347 -2.44916,0.0812 -4.88377,0.46326 -7.29885,0.87841 -3.95396,0.67968 -7.93633,1.37068 -11.74394,2.63475 -2.51019,0.83335 -4.89224,2.02768 -7.24386,3.23821 -3.60122,1.85378 -7.27666,3.67025 -10.48155,6.14693 -3.78697,2.9265 -7.20118,6.3851 -10.15211,10.15307 -2.53013,3.23065 -4.688672,6.79176 -6.36544,10.53704 -1.931709,4.31472 -3.300323,8.90856 -4.170156,13.55525 z m 26.623956,4.6763 c 0.86917,-3.38234 2.01621,-6.75815 3.78617,-9.76862 1.63936,-2.78833 3.82203,-5.27224 6.20096,-7.46381 2.08646,-1.92213 4.50165,-3.48521 6.96939,-4.88455 2.30074,-1.30464 4.7115,-2.47483 7.24384,-3.23821 3.72877,-1.12405 7.63422,-1.73923 11.52447,-1.92132 3.31592,-0.15521 6.67022,0.10217 9.9331,0.71296 3.66845,0.68671 7.26982,1.82511 10.70154,3.29222 3.27564,1.40038 6.3647,3.23821 9.32965,5.21305 2.8843,1.92113 5.64687,4.05249 8.17725,6.42043 3.17793,2.97392 5.87643,6.4234 8.72619,9.71313 9.26414,10.69439 7.23841,20.05295 27.20828,32.58002 -23.20802,0.0807 -27.66334,10.44376 -42.05144,13.61582 -5.37133,1.18419 -10.89033,1.65699 -16.3806,1.98928 -3.37802,0.20445 -6.77271,0.17134 -10.15259,4.9e-4 -1.26707,-0.064 -2.54319,-0.13224 -3.78665,-0.38398 -4.38954,-0.88868 -8.76862,-2.08874 -12.84184,-3.95066 -3.51297,-1.60582 -6.77356,-3.77599 -9.82361,-6.14597 -2.63593,-2.04819 -5.16064,-4.30642 -7.24433,-6.91438 -2.08947,-2.6152 -3.81079,-5.55185 -5.15902,-8.61574 -1.08397,-2.46335 -1.8081,-5.09282 -2.30528,-7.7378 -0.49505,-2.63365 -0.72759,-5.33338 -0.65893,-8.01228 0.0388,-1.51296 0.22677,-3.03425 0.60345,-4.50008 z"
       inkscape:transform-center-x="208.96174"
       sodipodi:nodetypes="aaaaaaaaaaaacacaaaaaaaaaaaaaaaaaaaaaaaacaaaaaaaaaaa" />
    <path
       d="m 138.31017,699.47568 c 2.61113,-8.74821 11.72794,-17.85117 23.36669,-14.28774 10.65386,3.26194 27.24495,16.47944 30.4158,30.83339 -9.5369,9.0683 -31.63634,11.06517 -42.28684,7.75405 -10.04263,-3.12216 -14.05844,-15.71344 -11.49565,-24.2997 z"
       fill="#063007"
       id="path103"
       inkscape:transform-center-x="352.2472"
       inkscape:transform-center-y="-110.46892"
       inkscape:label="feather_2_b"
       sodipodi:nodetypes="accca"
       style="display:inline;stroke-width:0.746433;fill:#063007;fill-opacity:1;stroke:none" />
    <path
       id="path100"
       style="display:inline;fill:#063007;fill-opacity:1;stroke-width:0.746433;stroke:none"
       inkscape:label="feather_3_a"
       inkscape:transform-center-y="-144.3898"
       d="m 181.90785,528.70502 c -1.8994,2.72245 -3.4088,5.7176 -4.7374,8.75968 -1.29457,2.96418 -2.32579,6.0525 -3.12397,9.18701 -0.93721,3.68048 -1.73272,7.43541 -1.93786,11.2278 -0.19006,3.51358 0.24802,7.04115 0.66283,10.53533 0.37562,3.16411 0.77246,6.35241 1.65007,9.4155 1.07266,3.74388 2.63707,7.34905 4.38333,10.83011 1.87016,3.72805 4.00551,7.34773 6.4904,10.69753 2.53739,3.42058 5.429,6.59336 8.53118,9.51145 3.44816,3.24353 7.21831,6.15544 11.13187,8.81896 3.14649,2.14146 6.48584,4.00147 9.87949,5.72466 5.1218,2.60068 10.57465,4.49704 15.77334,6.94039 21.62342,10.16289 39.92329,17.93453 64.0929,32.09065 6.08271,-8.8255 12.69947,-17.28137 19.77376,-25.32126 6.84357,-7.77768 14.15653,-15.15297 21.86208,-22.09052 -15.64559,-20.45673 -24.18137,-35.78137 -35.53108,-54.14405 -4.13675,-6.69285 -7.49225,-13.86404 -11.86097,-20.40783 -2.81774,-4.22062 -5.76623,-8.39735 -9.22365,-12.11212 -4.06834,-4.37116 -8.68985,-8.22548 -13.43779,-11.84701 -1.39887,-1.067 -2.89422,-2.00737 -4.41298,-2.89546 -2.65675,-1.55352 -5.35437,-3.07096 -8.19976,-4.24378 -2.26559,-0.93384 -4.64172,-1.58752 -7.01367,-2.20299 -3.88335,-1.00765 -7.79725,-2.01669 -11.78771,-2.43149 -2.63072,-0.27346 -5.29322,-0.16516 -7.93464,-0.0296 -4.04502,0.2076 -8.14233,0.35063 -12.08247,1.28902 -4.65576,1.10883 -9.19074,2.85603 -13.4308,5.07581 -3.63543,1.90324 -7.06818,4.26058 -10.13763,6.98402 -3.53613,3.13752 -6.67393,6.76114 -9.37887,10.63819 z m 22.3408,15.21814 c 2.18405,-2.72499 4.61865,-5.3297 7.47065,-7.34509 2.64155,-1.86667 5.65302,-3.23232 8.72304,-4.25076 2.69259,-0.89323 5.53702,-1.32393 8.36198,-1.58379 2.63378,-0.24227 5.31252,-0.31674 7.93464,0.0296 3.86097,0.50997 7.67356,1.55645 11.29408,2.99139 3.08601,1.22309 6.03722,2.838 8.75967,4.7374 3.06084,2.13549 5.87468,4.65505 8.39862,7.40438 2.40915,2.62429 4.46824,5.57047 6.35783,8.59047 1.83819,2.93785 3.47892,6.01723 4.81068,9.21666 1.67257,4.01821 2.71247,8.27255 3.95599,12.44354 4.04247,13.55923 -1.65497,21.25503 11.39056,40.89013 -21.18506,-9.47691 -29.51022,-1.86539 -43.92893,-4.89527 -5.38275,-1.13111 -10.60735,-2.97133 -15.74794,-4.92781 -3.16287,-1.20377 -6.24318,-2.63092 -9.25331,-4.1775 -1.12846,-0.57979 -2.26345,-1.16708 -3.29315,-1.90822 -3.63494,-2.61631 -7.1322,-5.5121 -10.07834,-8.88524 -2.54091,-2.90918 -4.61956,-6.22887 -6.42411,-9.64401 -1.55954,-2.95145 -2.93128,-6.04857 -3.75715,-9.28294 -0.82816,-3.24335 -1.1885,-6.62816 -1.15645,-9.97542 0.0258,-2.69118 0.44786,-5.38568 1.08318,-8.00092 0.6326,-2.60404 1.53163,-5.16028 2.69662,-7.57358 0.65794,-1.36295 1.45533,-2.67208 2.40184,-3.85302 z"
       inkscape:transform-center-x="163.30038"
       sodipodi:nodetypes="aaaaaaaaaaaacacaaaaaaaaaaaaaaaaaaaaaaaacaaaaaaaaaaa" />
    <path
       d="m 219.53222,553.87168 c 5.9798,-6.89862 18.03489,-11.4434 27.17608,-3.40616 8.36763,7.35716 18.04962,26.2311 15.03268,40.61819 -12.42369,4.34031 -33.38694,-2.93398 -41.73127,-10.33458 -7.86807,-6.97823 -6.3466,-20.10653 -0.47749,-26.87745 z"
       fill="#063007"
       id="path101"
       inkscape:transform-center-x="278.61376"
       inkscape:transform-center-y="-246.01384"
       inkscape:label="feather_3_b"
       sodipodi:nodetypes="accca"
       style="display:inline;stroke-width:0.746433;fill:#063007;fill-opacity:1;stroke:none" />
    <path
       id="path90"
       style="fill:#063007;fill-opacity:1;stroke-width:0.746433;stroke:none"
       inkscape:label="feather_4_a"
       inkscape:transform-center-y="-198.43231"
       d="m 329.54186,416.17181 c -2.85144,1.69962 -5.45967,3.80826 -7.92241,6.03409 -2.39968,2.16883 -4.61042,4.55918 -6.62778,7.08753 -2.36875,2.96873 -4.63899,6.06361 -6.38658,9.43559 -1.61911,3.12408 -2.67148,6.51938 -3.73133,9.87469 -0.95974,3.03836 -1.91009,6.10749 -2.37074,9.26035 -0.56303,3.8536 -0.6208,7.78314 -0.46176,11.6744 0.17033,4.16735 0.62694,8.34507 1.51318,12.42066 0.90497,4.1617 2.23475,8.24332 3.86125,12.17947 1.8079,4.37514 4.04574,8.58053 6.5165,12.61856 1.98648,3.24655 4.26455,6.31596 6.64842,9.28301 3.59781,4.47796 7.78717,8.45024 11.5198,12.81646 15.52548,18.16084 29.0059,32.77459 45.20872,55.62266 9.17562,-5.54047 18.68587,-10.52429 28.44193,-14.94069 9.43788,-4.27237 19.13798,-7.98484 29.01574,-11.1368 -5.84121,-25.08272 -7.31443,-42.56224 -10.10209,-63.96862 -1.01605,-7.80221 -1.12322,-15.7189 -2.41202,-23.48072 -0.83125,-5.00623 -1.79973,-10.02627 -3.42215,-14.8347 -1.9091,-5.65807 -4.53506,-11.07272 -7.37203,-16.32724 -0.83585,-1.54812 -1.81174,-3.02053 -2.83048,-4.45493 -1.78207,-2.50918 -3.61625,-5.00229 -5.72692,-7.24212 -1.68058,-1.78343 -3.57718,-3.357 -5.48571,-4.89404 -3.12464,-2.51644 -6.27655,-5.04669 -9.74277,-7.06688 -2.28511,-1.33182 -4.75627,-2.3288 -7.21945,-3.29224 -3.77207,-1.47539 -7.56524,-3.03112 -11.54246,-3.79729 -4.69957,-0.90532 -9.55176,-1.17914 -14.32964,-0.90087 -4.09655,0.23859 -8.19525,0.97445 -12.11349,2.19349 -4.51399,1.40439 -8.86496,3.41574 -12.92573,5.83618 z m 14.099,23.06342 c 3.11192,-1.58481 6.40271,-2.95686 9.83139,-3.62005 3.17568,-0.61426 6.48232,-0.61965 9.69945,-0.2845 2.82161,0.29395 5.59128,1.07192 8.27289,1.9976 2.50013,0.86304 4.97218,1.89753 7.21946,3.29224 3.30903,2.05365 6.35321,4.57634 9.06246,7.37404 2.30928,2.38467 4.33446,5.07097 6.03408,7.92241 1.91088,3.20587 3.43858,6.66014 4.60752,10.20452 1.11578,3.38319 1.78005,6.9157 2.25945,10.44573 0.46636,3.43401 0.69452,6.91574 0.59167,10.37975 -0.12917,4.3505 -0.93211,8.65586 -1.51519,12.96904 -1.8955,14.02146 -10.25509,18.69086 -6.44548,41.95478 -15.40824,-17.35525 -26.12807,-13.84401 -38.02249,-22.53896 -4.44039,-3.24598 -8.44483,-7.07316 -12.32486,-10.97173 -2.38728,-2.39868 -4.60738,-4.96698 -6.71439,-7.61525 -0.78989,-0.9928 -1.58266,-1.99511 -2.21614,-3.09433 -2.23625,-3.88034 -4.232,-7.95876 -5.52902,-12.24543 -1.11862,-3.69706 -1.64702,-7.57803 -1.88631,-11.4332 -0.2068,-3.33174 -0.1825,-6.71894 0.39579,-10.00662 0.5799,-3.29679 1.64438,-6.53001 3.05103,-9.56752 1.13094,-2.44215 2.62447,-4.72422 4.27971,-6.84632 1.64815,-2.11301 3.51947,-4.0728 5.57434,-5.79289 1.16053,-0.97145 2.426,-1.83649 3.77464,-2.52331 z"
       inkscape:transform-center-x="93.878992"
       sodipodi:nodetypes="aaaaaaaaaaaacacaaaaaaaaaaaaaaaaaaaaaaaacaaaaaaaaaaa" />
    <path
       d="m 353.47639,454.59176 c 8.28889,-3.82665 21.14618,-3.00794 26.17006,8.07897 4.59871,10.14873 5.65601,31.33478 -3.01413,43.20572 -13.10911,-1.15677 -29.2216,-16.41326 -33.78119,-26.592 -4.29935,-9.59781 2.48981,-20.93687 10.62526,-24.69269 z"
       fill="#063007"
       id="path91"
       inkscape:transform-center-x="154.74142"
       inkscape:transform-center-y="-336.1054"
       inkscape:label="feather_4_b"
       sodipodi:nodetypes="accca"
       style="stroke-width:0.746433;fill:#063007;fill-opacity:1;stroke:none" />
    <path
       id="path107"
       style="fill:#063007;fill-opacity:1;stroke-width:0.746433;stroke:none"
       inkscape:label="feather_5_a"
       inkscape:transform-center-y="-221.98916"
       d="m 510.40502,374.3622 c -3.29823,0.37563 -6.54311,1.22413 -9.70363,2.2393 -3.07958,0.98917 -6.07812,2.25799 -8.9572,3.73216 -3.38056,1.73094 -6.72325,3.61739 -9.70363,5.97146 -2.76127,2.18101 -5.11762,4.84243 -7.46433,7.46433 -2.12503,2.37423 -4.25417,4.78037 -5.97146,7.46433 -2.09896,3.28048 -3.76867,6.83811 -5.22503,10.45006 -1.55969,3.86823 -2.86273,7.86372 -3.73217,11.94293 -0.88781,4.1654 -1.35548,8.43262 -1.49286,12.68936 -0.1527,4.73149 0.15628,9.48521 0.74643,14.18223 0.47448,3.77638 1.28762,7.51132 2.2393,11.19649 1.43631,5.56178 3.61986,10.90611 5.22503,16.42153 6.67653,22.94081 12.94886,41.80721 18.31385,69.29872 10.64267,-1.2737 21.36126,-1.90237 32.07038,-1.91274 10.35986,-0.01 20.72829,0.59814 31.02799,1.79028 4.9982,-25.26422 10.84858,-41.80136 17.11693,-62.45836 2.28469,-7.52908 5.44484,-14.78848 7.46433,-22.39299 1.30253,-4.90476 2.48567,-9.87859 2.98573,-14.92866 0.58841,-5.9424 0.42331,-11.95795 0,-17.91439 -0.12472,-1.75494 -0.40822,-3.49849 -0.74643,-5.22504 -0.59162,-3.02022 -1.23736,-6.04723 -2.2393,-8.95719 -0.79778,-2.31701 -1.8788,-4.53165 -2.98573,-6.7179 -1.81226,-3.57932 -3.64369,-7.18246 -5.97147,-10.45006 -1.5346,-2.15418 -3.37655,-4.07974 -5.22503,-5.97146 -2.83073,-2.89694 -5.64763,-5.87579 -8.95719,-8.21076 -3.91065,-2.75905 -8.22027,-5.00535 -12.68936,-6.7179 -3.8318,-1.46834 -7.87018,-2.48435 -11.94293,-2.98573 -4.69199,-0.57761 -9.48518,-0.53494 -14.18222,0 z m 3.35894,26.82202 c 3.48838,-0.1638 7.05224,-0.0601 10.45006,0.74643 3.1471,0.747 6.16301,2.10281 8.9572,3.73216 2.45066,1.42904 4.65481,3.27784 6.7179,5.22503 1.92347,1.81542 3.75079,3.77554 5.22503,5.97147 2.17076,3.23342 3.9071,6.78533 5.22503,10.45006 1.12336,3.1237 1.86367,6.4054 2.2393,9.70363 0.42232,3.70819 0.39319,7.4851 0,11.19649 -0.37531,3.54261 -1.22357,7.0355 -2.2393,10.45006 -0.9881,3.32169 -2.21294,6.58884 -3.73217,9.70363 -1.90802,3.9119 -4.41153,7.5054 -6.71789,11.1965 -7.49759,11.99918 -17.03808,12.81479 -23.13942,35.58531 -6.9012,-22.15834 -18.1162,-23.36955 -25.37872,-36.18888 -2.71122,-4.78568 -4.78594,-9.92167 -6.7179,-15.07153 -1.18868,-3.16856 -2.1552,-6.42292 -2.98573,-9.70362 -0.31136,-1.2299 -0.62142,-2.46965 -0.74644,-3.73217 -0.44131,-4.4568 -0.58192,-8.99516 0,-13.43579 0.50188,-3.82984 1.61737,-7.58442 2.98574,-11.1965 1.18258,-3.12166 2.59861,-6.19877 4.47859,-8.95719 1.8852,-2.76608 4.18589,-5.27479 6.7179,-7.46433 2.03572,-1.76038 4.33604,-3.22567 6.7179,-4.4786 2.37166,-1.24757 4.88367,-2.26365 7.46433,-2.98573 1.45748,-0.40781 2.9668,-0.67544 4.47859,-0.74643 z"
       sodipodi:nodetypes="aaaaaaaaaaaacacaaaaaaaaaaaaaaaaaaaaaaaacaaaaaaaaaaa" />
    <path
       d="m 516.40866,419.22766 c 9.12925,-0.0766 20.51052,5.96052 20.52687,18.13256 0.0149,11.14202 -7.73981,30.88615 -20.52687,38.13747 -11.47165,-6.44886 -19.87836,-26.9842 -19.84529,-38.13747 0.0312,-10.51671 10.88504,-18.05734 19.84529,-18.13256 z"
       fill="#063007"
       id="path108"
       inkscape:transform-center-x="0.32274924"
       inkscape:transform-center-y="-367.94158"
       inkscape:label="feather_5_b"
       sodipodi:nodetypes="accca"
       style="stroke-width:0.746433;fill:#063007;fill-opacity:1;stroke:none" />
    <path
       id="path7"
       style="display:inline;fill:#063007;fill-opacity:1;stroke:none"
       inkscape:label="feather_6_a"
       inkscape:transform-center-y="-198.41708"
       d="m 9.63125e-4,-42.933594 c -4.418657625,0.503232 -8.765841725,1.63997 -13.000000125,3 -4.125727,1.325201 -8.142883,3.025051 -12,5 -4.528949,2.318945 -9.007176,4.846233 -13,8 -3.69928,2.921909 -6.856102,6.487433 -10,10 -2.846921,3.180765 -5.699342,6.404281 -8,10.0000002 -2.811986,4.3948787 -5.04891,9.1610466 -7,14 -2.089524,5.1822878 -3.835209,10.5350678 -5,15.9999998 -1.189402,5.580401 -1.815948,11.297222 -2,17 -0.204579,6.338799 0.209368,12.707376 1,19 0.635665,5.059242 1.725028,10.062952 3,15 1.924227,7.451146 4.849548,14.610969 7,22 8.944582,30.733914 17.347651,56.009334 24.535156,92.839844 14.258041,-1.70639 28.6177867,-2.54861 42.9648441,-2.5625 13.8791589,-0.0134 27.7697979,0.80133 41.5683589,2.39844 6.69612,-33.8466 14.533897,-56.00149 22.931641,-83.67578 3.060817,-10.08675 7.294482,-19.812202 10,-30.000004 1.745006,-6.570934 3.330073,-13.234394 4,-20 0.788301,-7.961067 0.567112,-16.020126 0,-24 -0.167087,-2.351093 -0.546901,-4.686938 -1,-7 -0.7926,-4.046206 -1.657691,-8.101512 -3,-12 -1.06879,-3.1041044 -2.517045,-6.0710711 -4,-8.9999998 -2.427888,-4.7952319 -4.881458,-9.6223769 -8,-14.0000002 -2.05591,-2.885964 -4.523578,-5.465658 -7,-8 -3.79235,-3.881047 -7.566159,-7.871822 -12,-11 -5.239116,-3.696319 -11.012742,-6.705692 -17,-9 -5.133476,-1.96714 -10.543715,-3.328301 -16,-4 -6.285881,-0.773827 -12.7073445,-0.716658 -18.999999875,0 z M 4.5009631,-7 c 4.6734072,-0.2194402 9.4479209,-0.080491 13.9999999,1 4.216189,1.0007636 8.256615,2.8171477 12,5 3.283166,1.9144881 6.236065,4.3913404 9,7 2.576887,2.4321198 5.024954,5.058104 7,8 2.908178,4.331827 5.234366,9.09034 7,14 1.50497,4.184835 2.496768,8.581342 3,13 0.565783,4.967886 0.526754,10.027824 0,15 -0.502798,4.746048 -1.639225,9.425498 -3,14 -1.323763,4.45008 -2.964686,8.827105 -5,13 -2.556179,5.240797 -5.910162,10.055012 -9,15 -10.044564,16.07536 -22.825997,17.16804 -30.9999999,47.67383 -9.24556646,-29.68565 -24.2703711,-31.3083 -34.0000001,-48.482424 -3.63224,-6.411399 -6.41175,-13.292118 -9,-20.191406 -1.59248,-4.244946 -2.887334,-8.604829 -4,-13 -0.417124,-1.647694 -0.832518,-3.308599 -1,-5 -0.591226,-5.9708 -0.779597,-12.050863 0,-18 0.672366,-5.130858 2.16679,-10.160876 4,-15 1.584309,-4.182101 3.481374,-8.304527 6,-12 2.525612,-3.705724 5.607856,-7.0666624 9,-10 2.727269,-2.3583904 5.809007,-4.32144031 9,-6 3.1773272,-1.671371 6.5426781,-3.0326253 10.0000001,-4 1.95259284,-0.5463445 3.974644,-0.9048993 6,-1 z"
       transform="matrix(0.68030143,0.30716788,-0.30716788,0.68030143,679.26108,439.89205)"
       inkscape:transform-center-x="-93.652979"
       sodipodi:nodetypes="aaaaaaaaaaaacacaaaaaaaaaaaaaaaaaaaaaaaacaaaaaaaaaaa" />
    <path
       d="m 679.45851,454.04568 c 8.35195,3.68698 16.24051,13.87281 11.24644,24.97317 -4.57149,10.16102 -19.76418,24.9647 -34.40237,26.31152 -7.8015,-10.59827 -7.01283,-32.77372 -2.39294,-42.92525 4.35621,-9.57212 17.35152,-11.97816 25.54887,-8.35944 z"
       fill="#063007"
       id="path33"
       inkscape:transform-center-x="-154.27365"
       inkscape:transform-center-y="-336.41613"
       inkscape:label="feather_6_b"
       sodipodi:nodetypes="accca"
       style="display:inline;stroke-width:0.746433;fill:#063007;fill-opacity:1;stroke:none" />
    <path
       id="path111"
       style="fill:#063007;fill-opacity:1;stroke-width:0.746433;stroke:none"
       inkscape:label="feather_7_a"
       inkscape:transform-center-y="-144.6076"
       d="m 843.41836,518.70283 c -2.46292,-2.22563 -5.24527,-4.09854 -8.09685,-5.79793 -2.77855,-1.65587 -5.71328,-3.06602 -8.72304,-4.25076 -3.534,-1.3911 -7.15961,-2.65096 -10.89638,-3.3298 -3.46206,-0.62893 -7.01671,-0.63643 -10.53533,-0.66283 -3.18625,-0.0239 -6.39915,-0.0298 -9.54808,0.45699 -3.84879,0.59497 -7.6216,1.6952 -11.29407,2.9914 -3.93304,1.38817 -7.79182,3.05301 -11.42665,5.09846 -3.71163,2.08867 -7.2218,4.55983 -10.50568,7.27181 -3.65013,3.01444 -7.01161,6.3899 -10.14462,9.93878 -2.51893,2.85328 -4.78281,5.93318 -6.91774,9.0841 -3.22211,4.75546 -5.78693,9.92764 -8.86259,14.7791 -12.79288,20.17917 -22.79682,37.36069 -39.87057,59.56549 7.99354,7.14087 15.55344,14.76525 22.64328,22.79142 6.85863,7.76442 13.2592,15.94408 19.17628,24.45838 22.25634,-12.95832 38.52995,-19.5061 58.17033,-28.46486 7.15855,-3.2653 14.69375,-5.69556 21.73349,-9.20967 4.54049,-2.26653 9.05384,-4.6683 13.17264,-7.63287 4.84659,-3.48841 9.24974,-7.5904 13.43779,-11.847 1.23392,-1.25411 2.35429,-2.6198 3.42573,-4.01528 1.87425,-2.44109 3.71781,-4.92727 5.23801,-7.60323 1.21043,-2.13069 2.15677,-4.40614 3.06468,-6.68225 1.48642,-3.72644 2.97803,-7.48301 3.8897,-11.39001 0.60102,-2.57571 0.82731,-5.23078 1.02388,-7.86836 0.30103,-4.03915 0.67265,-8.12207 0.23549,-12.14876 -0.51656,-4.75802 -1.6816,-9.47622 -3.35246,-13.96106 -1.4326,-3.8453 -3.3411,-7.54644 -5.65837,-10.93302 -2.6696,-3.90149 -5.8714,-7.4687 -9.37887,-10.63824 z m -17.89818,20.2573 c 2.42978,2.50835 4.70879,5.25023 6.35084,8.33233 1.52088,2.85468 2.49834,6.01356 3.12397,9.18702 0.54872,2.78331 0.61953,5.65929 0.52327,8.49454 -0.0898,2.64338 -0.35163,5.31032 -1.02389,7.86836 -0.98987,3.76661 -2.50594,7.41798 -4.38333,10.8301 -1.60023,2.90838 -3.5723,5.63393 -5.79793,8.09685 -2.50227,2.76906 -5.35463,5.24492 -8.39861,7.40437 -2.90554,2.06125 -6.08658,3.73485 -9.31959,5.23103 -3.14507,1.45549 -6.4058,2.69733 -9.74692,3.61759 -4.19615,1.15576 -8.54728,1.65426 -12.84123,2.3652 -13.95897,2.31117 -20.88,-4.30588 -41.99532,6.17585 12.05738,-19.83023 5.54929,-29.04372 10.36243,-42.96899 1.79683,-5.19855 4.27736,-10.15131 6.8627,-15.00615 1.59069,-2.98705 3.39265,-5.86419 5.3043,-8.65675 0.71665,-1.04689 1.44156,-2.09934 2.30591,-3.02803 3.05125,-3.27837 6.36254,-6.38512 10.07834,-8.88526 3.2047,-2.15626 6.75873,-3.80246 10.37311,-5.16474 3.12364,-1.17732 6.36826,-2.15008 9.68064,-2.56406 3.32157,-0.41513 6.72486,-0.34839 10.0417,0.10293 2.66673,0.36286 5.28708,1.11933 7.80207,2.07741 2.50422,0.95398 4.92762,2.16632 7.17588,3.62458 1.26975,0.82358 2.46865,1.77875 3.52166,2.86582 z"
       inkscape:transform-center-x="-163.00922"
       sodipodi:nodetypes="aaaaaaaaaaaacacaaaaaaaaaaaaaaaaaaaaaaaacaaaaaaaaaaa" />
    <path
       d="m 813.73455,552.87629 c 6.09476,6.79728 9.0928,19.32693 -0.0268,27.3887 -8.34789,7.37956 -28.28648,14.61967 -42.18201,9.82333 -2.74897,-12.86972 7.09534,-32.75595 15.48342,-40.10694 7.90933,-6.93142 20.74342,-3.77654 26.72535,2.89491 z"
       fill="#063007"
       id="path112"
       inkscape:transform-center-x="-278.19556"
       inkscape:transform-center-y="-246.44528"
       inkscape:label="feather_7_b"
       sodipodi:nodetypes="accca"
       style="stroke-width:0.746433;fill:#063007;fill-opacity:1;stroke:none" />
    <path
       id="path113"
       style="fill:#063007;fill-opacity:1;stroke-width:0.746433;stroke:none"
       inkscape:label="feather_8_a"
       inkscape:transform-center-y="-70.509635"
       d="m 936.56075,679.27686 c -1.32884,-3.04198 -3.09395,-5.89392 -4.99356,-8.61622 -1.85096,-2.65258 -3.94536,-5.14548 -6.20092,-7.46381 -2.64844,-2.72215 -5.43439,-5.36239 -8.56076,-7.51882 -2.89651,-1.99789 -6.13314,-3.46751 -9.32915,-4.93953 -2.89413,-1.33298 -5.81996,-2.66049 -8.89024,-3.51267 -3.75264,-1.04157 -7.64396,-1.59139 -11.52447,-1.92131 -4.15583,-0.35333 -8.35784,-0.42394 -12.51236,-0.0555 -4.24231,0.37623 -8.4584,1.18397 -12.56736,2.30431 -4.56723,1.24529 -9.01995,2.9384 -13.3358,4.88358 -3.46993,1.56392 -6.80066,3.43933 -10.04309,5.43253 -4.89358,3.0082 -9.35959,6.66668 -14.1592,9.82264 -19.96349,13.12691 -36.15157,24.66944 -60.85023,37.88087 4.34677,9.79767 8.09934,19.85756 11.25816,30.09021 3.05581,9.89894 5.52326,19.98784 7.41236,30.18276 25.61703,-2.65146 43.14336,-1.92229 64.73033,-2.00504 7.86804,-0.0302 15.73573,0.85573 23.59788,0.54991 5.07093,-0.19725 10.17277,-0.52891 15.14663,-1.53588 5.85271,-1.1849 11.55378,-3.11152 17.12242,-5.26755 1.64068,-0.63523 3.22379,-1.41887 4.77456,-2.2498 2.71275,-1.45354 5.41608,-2.96079 7.90279,-4.77409 1.98,-1.44381 3.77888,-3.12823 5.54301,-4.82907 2.88822,-2.78461 5.79356,-5.59454 8.23226,-8.78023 1.60772,-2.10018 2.90658,-4.42689 4.17114,-6.7499 1.93652,-3.55741 3.95537,-7.12569 5.21398,-10.97552 1.4872,-4.54904 2.36702,-9.32865 2.68977,-14.10373 0.27673,-4.09415 0.0604,-8.25276 -0.65798,-12.29289 -0.82757,-4.6544 -2.27776,-9.22315 -4.17017,-13.55525 z m -24.64863,11.09721 c 1.18228,3.28602 2.13108,6.72282 2.35932,10.20758 0.2114,3.22763 -0.19769,6.50887 -0.93341,9.65863 -0.64527,2.76252 -1.76425,5.41285 -3.01873,7.95729 -1.16959,2.37225 -2.50577,4.69514 -4.17114,6.7499 -2.45219,3.02555 -5.33651,5.72955 -8.45171,8.06679 -2.6553,1.99219 -5.57424,3.66472 -8.61622,4.99356 -3.42009,1.49401 -7.0386,2.57673 -10.70154,3.29223 -3.49634,0.68295 -7.08424,0.89924 -10.64651,0.93243 -3.46538,0.0323 -6.94826,-0.17773 -10.37206,-0.71392 -4.3,-0.67341 -8.47077,-2.00963 -12.67686,-3.1287 -13.67333,-3.63791 -17.25817,-12.51681 -40.81613,-11.65298 19.14957,-13.11156 17.00955,-24.18694 27.12671,-34.8978 3.77691,-3.99855 8.07581,-7.49174 12.42993,-10.85255 2.67898,-2.06782 5.50528,-3.94853 8.39674,-5.707 1.08397,-0.65923 2.17775,-1.32012 3.3477,-1.81084 4.13002,-1.73228 8.4264,-3.20114 12.84183,-3.95067 3.8081,-0.64644 7.72469,-0.68426 11.57944,-0.43848 3.33139,0.21241 6.68886,0.66105 9.87814,1.64684 3.19812,0.98852 6.27244,2.44984 9.1097,4.22611 2.28114,1.4281 4.35803,3.19587 6.25593,5.10402 1.88978,1.89998 3.59959,4.00217 5.04857,6.25643 0.81834,1.27313 1.51793,2.63704 2.0303,4.06113 z"
       inkscape:transform-center-x="-208.94198"
       sodipodi:nodetypes="aaaaaaaaaaaacacaaaaaaaaaaaaaaaaaaaaaaaacaaaaaaaaaaa" />
    <path
       d="m 895.44394,698.20735 c 2.75762,8.70314 0.33395,21.35644 -11.29525,24.95112 -10.64507,3.29049 -31.79658,1.68413 -42.48725,-8.40548 2.79065,-12.86074 19.94626,-26.93405 30.61622,-30.18195 10.06101,-3.06251 20.45971,5.09427 23.16628,13.6363 z"
       fill="#063007"
       id="path114"
       inkscape:transform-center-x="-351.99789"
       inkscape:transform-center-y="-110.9967"
       inkscape:label="feather_8_b"
       sodipodi:nodetypes="accca"
       style="stroke-width:0.746433;fill:#063007;fill-opacity:1;stroke:none" />
    <path
       id="path115"
       style="fill:#063007;fill-opacity:1;stroke-width:0.746433;stroke:none"
       inkscape:label="feather_9_a"
       inkscape:transform-center-y="30.8049"
       d="m 955.3725,863.95399 c 0.0407,-3.31931 -0.3944,-6.64495 -1.00544,-9.90778 -0.59539,-3.17926 -1.47836,-6.31317 -2.58005,-9.3543 -1.29359,-3.57086 -2.74622,-7.12363 -4.7082,-10.37556 -1.81773,-3.01284 -4.16283,-5.68417 -6.46993,-8.34098 -2.08917,-2.40585 -4.20949,-4.81978 -6.65706,-6.85992 -2.99155,-2.49356 -6.31186,-4.596 -9.71281,-6.49357 -3.64225,-2.0322 -7.44294,-3.82572 -11.38101,-5.19956 -4.02128,-1.40287 -8.19625,-2.40169 -12.40221,-3.0715 -4.67504,-0.74451 -9.42999,-1.03376 -14.16394,-1.03695 -3.80607,-0.003 -7.61347,0.33604 -11.38886,0.81834 -5.69794,0.7279 -11.2738,2.22442 -16.9469,3.12567 -23.5967,3.74864 -43.10048,7.60692 -71.04761,9.484 -0.0702,10.71839 -0.78992,21.43124 -2.12184,32.05721 -1.28848,10.27943 -3.19136,20.48989 -5.66499,30.55897 24.43856,8.12523 40.11205,16.00213 59.82053,24.81006 7.18337,3.21032 13.98946,7.2554 21.2809,10.21206 4.70284,1.90699 9.48915,3.70419 14.43673,4.83324 5.82178,1.32855 11.81058,1.91871 17.77309,2.24526 1.75672,0.0962 3.52205,0.0335 5.27736,-0.0857 3.07056,-0.20843 6.15464,-0.46968 9.16724,-1.09901 2.39873,-0.50109 4.73141,-1.29601 7.03916,-2.1202 3.77824,-1.34935 7.58251,-2.71475 11.11611,-4.61463 2.32954,-1.25251 4.4708,-2.83858 6.57928,-4.4354 3.22888,-2.44532 6.53726,-4.86668 9.26861,-7.85749 3.22743,-3.53401 5.99615,-7.52811 8.25532,-11.74731 1.93701,-3.61755 3.45117,-7.49675 4.45904,-11.47455 1.16111,-4.5826 1.7195,-9.34335 1.77748,-14.0704 z m -27.03147,-0.0293 c -0.27471,3.48141 -0.82428,7.00417 -2.0503,10.27412 -1.13555,3.02866 -2.85868,5.85086 -4.82539,8.4188 -1.72492,2.25223 -3.83539,4.20727 -6.0258,6.01004 -2.04219,1.68078 -4.2159,3.24801 -6.57929,4.4354 -3.47998,1.74838 -7.22149,3.02588 -11.0225,3.8741 -3.23986,0.723 -6.58847,1.04616 -9.90778,1.00545 -3.73188,-0.0458 -7.47535,-0.54804 -11.1082,-1.40329 -3.46762,-0.81635 -6.82665,-2.09571 -10.08697,-3.53138 -3.17165,-1.39663 -6.25953,-3.02128 -9.15935,-4.91891 -3.64192,-2.38326 -6.89329,-5.31743 -10.26622,-8.06822 -10.96486,-8.94237 -10.57831,-18.50985 -32.40458,-27.41698 22.84856,-4.0696 25.45583,-15.04438 39.08431,-20.64294 5.08775,-2.09004 10.44327,-3.50469 15.79466,-4.77596 3.29257,-0.78218 6.64242,-1.3332 10.00135,-1.746 1.25922,-0.15475 2.52805,-0.30699 3.79628,-0.27278 4.47695,0.12075 8.99713,0.55006 13.3298,1.68394 3.73674,0.97792 7.32191,2.55519 10.73401,4.36548 2.94883,1.56451 5.82421,3.35505 8.32526,5.56593 2.508,2.21702 4.70861,4.81398 6.56354,7.60046 1.49134,2.2403 2.65672,4.70613 3.60124,7.22623 0.94048,2.50933 1.63376,5.12887 2.02671,7.77969 0.22193,1.49709 0.29827,3.02806 0.17922,4.53682 z"
       inkscape:transform-center-x="-218.75262"
       sodipodi:nodetypes="aaaaaaaaaaaacacaaaaaaaaaaaaaaaaaaaaaaaacaaaaaaaaaaa" />
    <path
       d="m 910.10836,864.28715 c -1.06814,9.06686 -8.4841,19.60175 -20.56229,18.09237 -11.05601,-1.38164 -29.67253,-11.54984 -35.26403,-25.1449 7.83579,-10.57293 29.26286,-16.33961 40.32403,-14.90891 10.42991,1.34906 16.55066,13.06239 15.50229,21.96142 z"
       fill="#063007"
       id="path116"
       inkscape:transform-center-x="-365.1811"
       inkscape:transform-center-y="47.013548"
       inkscape:label="feather_9_b"
       sodipodi:nodetypes="accca"
       style="stroke-width:0.746433;fill:#063007;fill-opacity:1;stroke:none" />
  </g>
  <g
     inkscape:groupmode="layer"
     id="layer2"
     inkscape:label="Bee"
     style="display:inline">
    <path
       id="path14"
       style="display:inline;fill:#063007;fill-opacity:1;stroke:none;stroke-width:0.746433;stroke-opacity:0"
       d="m 511.82031,603.64608 c -2.0752,0 -3.63238,0.69842 -5.91601,2.79692 -2.17924,2.00256 -2.68387,6.71892 -1.78321,9.45112 0.98729,2.99499 2.85827,5.85904 2.93164,9.01953 0.0425,1.82974 -0.0223,4.15361 -1.45312,5.29493 -1.15337,0.92002 -2.97745,0.49389 -4.42188,0.19335 -2.47663,-0.51531 -4.29234,-3.42079 -6.82031,-3.32812 -2.07787,0.0762 -4.1281,1.48659 -5.39062,3.13867 -1.57347,2.05898 -2.68434,5.00768 -2.01,7.50977 0.72765,2.69988 3.16924,5.59762 5.94727,5.91601 2.27866,0.26116 3.58278,-3.27383 5.84961,-3.62304 2.68614,-0.4138 6.11158,-0.0364 7.90234,2.008 1.08279,1.23618 0.5594,3.2532 0.57422,4.89648 0.0128,1.41373 -0.13189,2.83617 -0.41797,4.22071 -0.43129,2.08733 -1.01767,4.17188 -1.94336,6.09179 -1.13225,2.34831 -2.60246,4.56505 -4.34961,6.5 -1.3018,1.44172 -2.75616,2.83759 -4.48828,3.7168 -3.24082,1.64502 -6.94186,2.46573 -10.57031,2.67383 -2.87822,0.16508 -5.77651,-0.44479 -8.57227,-1.14844 -1.38559,-0.34873 -2.78578,-0.77591 -4.01172,-1.50977 -1.96034,-1.17349 -4.16069,-2.45819 -5.1582,-4.51367 -2.10166,-4.3307 0.68194,-9.82485 -0.74609,-14.42187 -1.32134,-4.25356 -3.81329,-8.2669 -6.99219,-11.38672 -2.21699,-2.17578 -4.98864,-4.10082 -8.03125,-4.72656 -3.04308,-0.62583 -6.76973,-0.70224 -9.2461,1.17382 -1.28874,0.97633 -1.71117,2.85998 -1.89062,4.4668 -0.20778,1.86045 -0.0987,4.00747 0.99414,5.52735 1.5981,2.22249 5.50624,1.80007 7.19922,3.95117 6.06197,7.70234 4.24028,19.20755 7.69336,28.38086 2.21922,5.89549 5.92556,11.11648 8.31055,16.97265 2.00694,4.92789 6.77623,10.5595 10.01367,14.78711 2.61827,-4.53105 4.60671,-7.64294 8.15039,-10.14453 9.4492,-6.67048 21.19917,-11.42176 32.76562,-11.42187 11.56708,-1.1e-4 23.31784,4.75112 32.76762,11.42187 3.5437,2.50156 5.45085,5.51469 8.15039,10.14453 3.23744,-4.22761 8.00673,-9.85922 10.01367,-14.78711 2.38499,-5.85617 6.09133,-11.07716 8.31055,-16.97265 3.45308,-9.17331 1.63139,-20.67852 7.69336,-28.38086 1.69298,-2.1511 5.60112,-1.72868 7.19922,-3.95117 1.09288,-1.51988 1.20192,-3.6669 0.99414,-5.52735 -0.17945,-1.60682 -0.60189,-3.49047 -1.89063,-4.4668 -2.47637,-1.87606 -6.20301,-1.79965 -9.24609,-1.17382 -3.04261,0.62574 -5.81426,2.55078 -8.03125,4.72656 -3.1789,3.11982 -5.67085,7.13316 -6.99219,11.38672 -1.42803,4.59702 1.35557,10.09117 -0.74609,14.42187 -0.99751,2.05548 -3.19786,3.34018 -5.1582,4.51367 -1.22594,0.73386 -2.62613,1.16104 -4.01172,1.50977 -2.79576,0.70365 -5.69405,1.31352 -8.57227,1.14844 -3.62845,-0.2081 -7.32949,-1.02881 -10.57031,-2.67383 -1.73212,-0.87921 -3.18648,-2.27508 -4.48828,-3.7168 -1.74715,-1.93495 -3.21736,-4.15169 -4.34961,-6.5 -0.92569,-1.91991 -1.51207,-4.00446 -1.94336,-6.09179 -0.28608,-1.38454 -0.43072,-2.80698 -0.41797,-4.22071 0.0148,-1.64328 -0.50857,-3.6603 0.57422,-4.89648 1.79076,-2.04444 5.2162,-2.4218 7.90234,-2.008 2.26683,0.34921 3.57095,3.8842 5.84961,3.62304 2.77803,-0.31839 5.21962,-3.21613 5.94727,-5.91601 0.67434,-2.50209 -0.43653,-5.45079 -2.01,-7.50977 -1.26252,-1.65208 -3.31275,-3.0625 -5.39062,-3.13867 -2.52797,-0.0927 -4.34369,2.81281 -6.82032,3.32812 -1.44443,0.30054 -3.2685,0.72667 -4.42187,-0.19335 -1.43079,-1.14132 -1.4956,-3.46519 -1.45313,-5.29493 0.0734,-3.16049 1.94436,-6.02454 2.93165,-9.01953 0.90066,-2.7322 0.39603,-7.44856 -1.78321,-9.45112 -2.28363,-2.0985 -3.77862,-2.79692 -5.91601,-2.79692 -2.13739,0 -3.25722,2.60053 -4.11991,2.60053 -0.86269,0 -2.04473,-2.60053 -4.11991,-2.60053 z"
       sodipodi:nodetypes="zssaaaaaaaaaaaaaaaaaaaaaaaaaascaaacsaaaaaaaaaaaaaaaaaaaaaaaaaasszzz"
       inkscape:label="crown" />
    <path
       id="path47"
       style="display:inline;fill:#063007;fill-opacity:1;stroke:none;stroke-width:0.746433;stroke-dasharray:none;stroke-opacity:0"
       inkscape:label="belly"
       d="m 478.97436,789.60926 c -12.40387,4.64775 -22.48035,18.9876 -30.38069,36.53439 -7.35553,16.33673 -7.82574,35.0863 -3.8211,52.35092 4.89981,21.1239 16.31149,40.30186 30.81661,56.23611 7.26878,7.98497 15.61741,14.79333 23.71236,21.86377 4.19895,3.66745 8.03351,7.70572 11.48224,12.06833 1.49503,1.89131 3.71691,3.28938 5.96563,3.43329 2.24872,-0.14391 4.4706,-1.54198 5.96563,-3.43329 3.44873,-4.36261 7.28329,-8.40088 11.48224,-12.06833 8.09495,-7.07044 16.44359,-13.8788 23.71237,-21.86377 14.50512,-15.93425 25.9168,-35.11221 30.8166,-56.23611 4.00464,-17.26462 3.53444,-36.01419 -3.82109,-52.35092 -4.49463,-9.98262 -19.22942,-29.8351 -30.3807,-36.53439 -4.88737,4.33058 -9.19284,7.89541 -14.65896,10.30136 -7.15909,3.15112 -15.09492,5.03165 -22.91681,5.0457 -7.95169,0.0143 -16.03175,-1.85537 -23.31538,-5.0457 -5.47043,-2.39612 -9.86906,-6.17889 -14.65895,-10.30136 z"
       sodipodi:nodetypes="cssssscssssscaaac" />
    <path
       id="path51"
       style="display:inline;fill:#f2c503;fill-opacity:1;stroke:none;stroke-width:0.553027;stroke-dasharray:none;stroke-opacity:0;fill-rule:evenodd"
       inkscape:label="stripe_up"
       d="m 473.55542,829.37869 c -0.25207,0.38157 -0.49996,0.76363 -0.72165,1.10507 -1.81332,2.85367 -3.44935,5.82035 -4.89117,8.87847 -1.87573,3.86398 -3.22691,7.96654 -4.08351,12.17181 16.34481,8.41262 34.45946,12.80809 52.8422,12.82205 h 0.086 0.0102 c 18.38274,-0.0142 36.49739,-4.40943 52.84221,-12.82205 -0.8566,-4.20527 -2.20778,-8.30783 -4.08351,-12.17181 -1.44183,-3.05812 -3.07786,-6.0248 -4.89118,-8.87847 -0.22169,-0.34144 -0.46959,-0.7235 -0.72165,-1.10507 -13.28521,7.11741 -28.12234,10.84422 -43.19398,10.84951 -15.07163,-0.005 -29.90877,-3.7321 -43.19397,-10.84951 z"
       sodipodi:nodetypes="ccccscscccccc" />
    <path
       id="path53"
       style="display:inline;fill:#f2c503;fill-opacity:1;stroke:none;stroke-width:0.553027;stroke-dasharray:none;stroke-opacity:0"
       inkscape:label="stripe_down"
       d="m 464.50057,878.85025 c 2.50774,10.82208 7.40436,21.02388 13.7434,30.12416 a 164.8368,164.8368 0 0 0 38.45733,4.55877 164.8368,164.8368 0 0 0 0.0525,0 164.8368,164.8368 0 0 0 0.0437,0 164.8368,164.8368 0 0 0 38.45733,-4.55877 c 6.33904,-9.10028 11.23566,-19.30208 13.7434,-30.12416 a 140.24802,140.24802 0 0 1 -52.24447,10.09438 140.24802,140.24802 0 0 1 -0.009,0 140.24802,140.24802 0 0 1 -52.24448,-10.09438 z" />
    <path
       id="path55"
       style="display:inline;fill:#063007;fill-opacity:1;stroke:none;stroke-width:0.746433;stroke-dasharray:none;stroke-opacity:0"
       inkscape:label="body"
       d="m 340.01246,669.50062 c -4.88529,0.17684 -9.15894,1.06178 -12.4838,2.9901 -4.68233,2.71561 -14.18657,6.09746 -17.00759,22.53295 -3.59148,20.9243 7.71125,33.70591 8.94845,35.94833 1.96242,3.55693 12.19697,18.07454 34.39714,28.50003 0.36796,5.15143 3.64949,17.93605 5.95543,21.82733 1.96245,3.31164 11.605,15.88414 21.85066,19.0457 12.60094,3.88836 34.34404,1.92067 40.9955,-0.45485 5.15141,-1.83979 36.08551,-14.94175 56.56854,-32.72642 18.242,33.46882 57.63038,33.13176 75.02525,0 20.48303,17.78467 51.41712,30.88663 56.56854,32.72642 6.65146,2.37552 28.39456,4.34321 40.99549,0.45485 10.24567,-3.16156 19.88822,-15.73406 21.85066,-19.0457 2.30594,-3.89128 5.58747,-16.6759 5.95543,-21.82733 22.20017,-10.42549 32.43472,-24.9431 34.39715,-28.50003 1.2372,-2.24242 12.53993,-15.02403 8.94845,-35.94833 -2.82102,-16.43549 -12.32527,-19.81734 -17.0076,-22.53295 -3.32486,-1.92832 -7.59851,-2.81326 -12.4838,-2.9901 -8.14213,-0.29474 -17.9824,1.37721 -27.95624,3.45809 -17.04875,3.55693 -54.06181,22.18921 -62.41316,27.1165 -12.26529,7.23652 -41.81844,24.58862 -49.79087,31.08922 -20.33251,-30.20408 -52.98008,-29.96753 -73.15335,0 -7.97243,-6.5006 -37.52558,-23.8527 -49.79087,-31.08922 -8.35135,-4.92729 -45.36441,-23.55957 -62.41316,-27.1165 -9.97384,-2.08088 -19.81411,-3.75283 -27.95625,-3.45809 z m -14.32364,21.58095 c -0.64486,0.69219 -1.22765,1.4898 -1.80048,2.42007 0.57283,-0.93027 1.15562,-1.72788 1.80048,-2.42007 z m -3.29626,5.43351 c -0.17488,0.72331 -0.23962,1.59587 -0.2216,2.56586 -0.018,-0.96999 0.0467,-1.84255 0.2216,-2.56586 z m 9.85525,28.65748 c 1.93212,2.56089 4.21715,5.33629 6.72372,7.90023 -2.50687,-2.56415 -4.7914,-5.33908 -6.72372,-7.90023 z m 35.87981,36.0912 c 2.5e-4,-2.5e-4 0.001,2.5e-4 0.001,0 -0.041,0.04 -0.0809,0.0813 -0.11809,0.12392 0.0372,-0.0426 0.0756,-0.0839 0.11663,-0.12392 z m -0.31782,0.39362 c -0.23958,0.37843 -0.36936,0.82698 -0.43154,1.30335 -0.0622,0.47638 -0.0561,0.98125 -0.0263,1.471 -0.0299,-0.48975 -0.0359,-0.99462 0.0263,-1.471 0.0622,-0.47637 0.19196,-0.92492 0.43154,-1.30335 z"
       sodipodi:nodetypes="sssscsssccssscssssssccssscccccccccccccccscsc" />
    <path
       style="display:none;fill:#063007;fill-opacity:1;stroke:#000000;stroke-width:0.746433;stroke-dasharray:none;stroke-opacity:1"
       d="M 516.74941,1338.4452 V 147.95315 Z"
       id="path56"
       sodipodi:nodetypes="ccc"
       inkscape:label="axis" />
    <path
       id="rect2"
       style="display:inline;fill:#003cad;fill-opacity:1;stroke:none;stroke-width:0.746433;stroke-opacity:0"
       d="m 341.71409,686.01544 c -1.46525,-0.05 -2.77062,0.0152 -3.87213,0.21286 -9.56689,1.71714 -11.98073,3.33804 -15.08611,9.32021 -2.3272,4.48309 3.18838,20.23824 3.18838,20.23824 0,0 9.81713,17.05629 21.09694,23.91793 9.37541,5.70317 15.03735,5.7654 20.23679,5.3956 7.97811,-0.56744 25.26977,-3.01465 34.3432,-3.55576 10.09422,-0.60199 28.21008,-0.61327 58.9959,0 -13.9824,-10.05752 -28.94632,-18.27552 -39.1265,-24.16285 -10.18017,-5.88733 -27.7708,-14.88045 -40.47503,-20.36071 -10.94676,-4.72213 -29.0446,-10.6556 -39.30144,-11.00552 z m 98.62537,69.76087 c -11.71645,-0.25416 -23.45287,-0.6915 -35.15962,0.11809 -10.19808,0.70526 -20.4172,1.56723 -30.47546,3.47267 -1.95302,0.36997 -3.92843,0.68313 -5.78777,1.4083 -2.0092,0.78361 -1.57524,3.36571 -1.42872,5.03989 0.36469,4.16689 3.0293,7.91096 5.84171,11.01717 2.96721,3.27716 6.82158,5.75039 10.85973,7.60137 3.36981,1.54464 7.10648,1.55772 10.70518,1.35728 7.63464,-0.42523 15.41649,-1.24665 22.56794,-4.15787 10.2634,-4.17802 19.46661,-10.61862 28.87471,-16.47692 4.13062,-2.57208 8.53492,-4.97456 11.70384,-8.77204 -5.8968,-0.29829 -11.7988,-0.47988 -17.70154,-0.60794 z"
       sodipodi:nodetypes="ssscssscssssssssssssscs"
       inkscape:label="wing_left" />
    <path
       id="rect3"
       style="display:inline;fill:#c51124;fill-opacity:1;stroke:none;stroke-width:0.746433;stroke-opacity:0"
       d="m 691.81446,686.01544 c -10.25684,0.34992 -28.35468,6.28339 -39.30144,11.00552 -12.70423,5.48026 -30.29486,14.47338 -40.47503,20.36071 -10.18018,5.88733 -25.1441,14.10533 -39.1265,24.16285 30.78582,-0.61327 48.90168,-0.60199 58.9959,0 9.07343,0.54111 26.36509,2.98832 34.3432,3.55576 5.19944,0.3698 10.86138,0.30757 20.23679,-5.3956 11.27981,-6.86164 21.09694,-23.91793 21.09694,-23.91793 0,0 5.51558,-15.75515 3.18838,-20.23824 -3.10538,-5.98217 -5.51922,-7.60307 -15.08611,-9.32021 -1.10151,-0.1977 -2.40687,-0.26287 -3.87213,-0.21286 z m -98.62537,69.76087 c -5.90274,0.12806 -11.80474,0.30965 -17.70154,0.60794 3.16892,3.79748 7.57322,6.19996 11.70384,8.77204 9.4081,5.8583 18.61131,12.2989 28.87471,16.47692 7.15144,2.91122 14.9333,3.73264 22.56794,4.15787 3.5987,0.20044 7.33537,0.18736 10.70518,-1.35728 4.03815,-1.85098 7.89252,-4.32421 10.85973,-7.60137 2.81241,-3.10621 5.47702,-6.85028 5.84171,-11.01717 0.14652,-1.67418 0.58048,-4.25628 -1.42872,-5.03989 -1.85934,-0.72517 -3.83475,-1.03833 -5.78777,-1.4083 -10.05826,-1.90545 -20.27738,-2.76741 -30.47546,-3.47267 -11.70675,-0.80959 -23.44317,-0.37225 -35.15962,-0.11809 z"
       sodipodi:nodetypes="csscssscsscscssssssssss"
       inkscape:label="wing_right" />
  </g>
</svg>
