<?xml version="1.0" encoding="UTF-8"?>
<svg xmlns="http://www.w3.org/2000/svg" viewBox="70 364 895 614">
<defs><mask id="logo-grayscale-cutouts" maskUnits="userSpaceOnUse" x="70" y="364" width="895" height="614"><rect x="70" y="364" width="895" height="614" fill="#fff"/><g fill="#000"><g transform="translate(516.74941 732.81) scale(0.2032) translate(-1016.19935 -323.88462)"><path d="m 378.06233,127.79056 c -145.664,-50.576998 -257.544,-50.576998 -282.219001,0 -24.675,50.577 42.859001,141.472 170.356001,229.2856 162.885,-17.1199 327.115,-17.1199 490,0 -82.569,-87.8136 -232.474,-178.7086 -378.137,-229.2856 z" fill-rule="evenodd"/><path d="m 296.19933,427.07656 c -13.23,77.876 42.437,128.102 141.981,128.102 99.544,0 224.232,-50.226 318.019,-128.102 -152.912,-16.0721 -307.088,-16.0721 -460,0 z" fill-rule="evenodd"/><path d="m 1654.3363,127.79056 c 145.664,-50.576998 257.544,-50.576998 282.219,0 24.675,50.577 -42.859,141.472 -170.356,229.2856 -162.885,-17.1199 -327.115,-17.1199 -490,0 82.569,-87.8136 232.474,-178.7086 378.137,-229.2856 z" fill-rule="evenodd"/><path d="m 1276.1993,427.07656 c 93.787,77.876 218.475,128.102 318.019,128.102 99.544,0 155.211,-50.226 141.981,-128.102 -152.912,-16.0721 -307.088,-16.0721 -460,0 z" fill-rule="evenodd"/></g><g transform="translate(516.74941 789.61) scale(0.2114) translate(-350.0 0)"><path d="m 150,169.634 c 123.7604,71.453 276.2396,71.453 400,0 26.66,35.53 43.497,77.452 48.82,121.552 -155.5682,82.7169 -342.0718,82.7169 -497.64,0 5.323,-44.1 22.16,-86.022 48.82,-121.552 z"/><path d="m 101.256,423.74533 c 159.268,65.97107 338.22,65.97107 497.488,0 -6.771,55.44657 -30.922,107.32617 -68.991,148.20267 -118.1566,28.367 -241.3494,28.367 -359.506,0 -38.069,-40.8765 -62.22,-92.7561 -68.991,-148.20267 z"/></g></g></mask></defs><g fill="#ffffff" mask="url(#logo-grayscale-cutouts)"><g transform="translate(86.726 936.856) rotate(-99.815) scale(0.206225)"><path d="M 301.6688,0 C 235.98494,2.5000207e-4 170.30252,22.6425 115.68532,67.9235 6.450321,158.4855 -30.346199,316.2496 26.522801,450.22575 c 21.832,51.43145 40.0473,104.32008 54.5083,158.29008 L 145.73517,849.9998 c 102.8077,-21.852 209.05957,-21.852 311.86727,0 L 522.3065,608.51583 c 14.461,-53.97 32.6763,-106.85848 54.5083,-158.29008 56.869,-133.976 20.07248,-291.74541 -89.16252,-382.30741 C 433.03493,22.63734 367.35266,-2.4999793e-4 301.6688,0 Z m 0,99.99907 c 88.9367,0 167.18779,73.41038 192.03479,180.15438 24.847,106.744 -9.68085,221.17596 -84.73385,280.82006 C 353.75215,604.85551 315.7617,666.78924 301.6688,735.89824 287.5759,666.78924 249.58546,604.85551 194.36786,560.97351 119.31486,501.32941 84.787011,386.89745 109.63401,280.15345 134.48101,173.40945 212.7321,99.99907 301.6688,99.99907 Z"/><path d="m 301.66897,479.99939 c 55.22843,0 100.00003,-44.7715 100.00003,-99.9999 0,-99.4111 -44.7715,-180.0001 -99.99998,-180.0001 -55.22852,0 -100.00002,80.589 -100.00002,180 0,55.2285 44.7715,100 99.99997,100 z"/></g><g transform="translate(74.833 748.993) rotate(-75.515) scale(0.206225)"><path d="M 301.6688,0 C 235.98494,2.5000207e-4 170.30252,22.6425 115.68532,67.9235 6.450321,158.4855 -30.346199,316.2496 26.522801,450.22575 c 21.832,51.43145 40.0473,104.32008 54.5083,158.29008 L 145.73517,849.9998 c 102.8077,-21.852 209.05957,-21.852 311.86727,0 L 522.3065,608.51583 c 14.461,-53.97 32.6763,-106.85848 54.5083,-158.29008 56.869,-133.976 20.07248,-291.74541 -89.16252,-382.30741 C 433.03493,22.63734 367.35266,-2.4999793e-4 301.6688,0 Z m 0,99.99907 c 88.9367,0 167.18779,73.41038 192.03479,180.15438 24.847,106.744 -9.68085,221.17596 -84.73385,280.82006 C 353.75215,604.85551 315.7617,666.78924 301.6688,735.89824 287.5759,666.78924 249.58546,604.85551 194.36786,560.97351 119.31486,501.32941 84.787011,386.89745 109.63401,280.15345 134.48101,173.40945 212.7321,99.99907 301.6688,99.99907 Z"/><path d="m 301.66897,479.99939 c 55.22843,0 100.00003,-44.7715 100.00003,-99.9999 0,-99.4111 -44.7715,-180.0001 -99.99998,-180.0001 -55.22852,0 -100.00002,80.589 -100.00002,180 0,55.2285 44.7715,100 99.99997,100 z"/></g><g transform="translate(141.302 572.881) rotate(-51.215) scale(0.206225)"><path d="M 301.6688,0 C 235.98494,2.5000207e-4 170.30252,22.6425 115.68532,67.9235 6.450321,158.4855 -30.346199,316.2496 26.522801,450.22575 c 21.832,51.43145 40.0473,104.32008 54.5083,158.29008 L 145.73517,849.9998 c 102.8077,-21.852 209.05957,-21.852 311.86727,0 L 522.3065,608.51583 c 14.461,-53.97 32.6763,-106.85848 54.5083,-158.29008 56.869,-133.976 20.07248,-291.74541 -89.16252,-382.30741 C 433.03493,22.63734 367.35266,-2.4999793e-4 301.6688,0 Z m 0,99.99907 c 88.9367,0 167.18779,73.41038 192.03479,180.15438 24.847,106.744 -9.68085,221.17596 -84.73385,280.82006 C 353.75215,604.85551 315.7617,666.78924 301.6688,735.89824 287.5759,666.78924 249.58546,604.85551 194.36786,560.97351 119.31486,501.32941 84.787011,386.89745 109.63401,280.15345 134.48101,173.40945 212.7321,99.99907 301.6688,99.99907 Z"/><path d="m 301.66897,479.99939 c 55.22843,0 100.00003,-44.7715 100.00003,-99.9999 0,-99.4111 -44.7715,-180.0001 -99.99998,-180.0001 -55.22852,0 -100.00002,80.589 -100.00002,180 0,55.2285 44.7715,100 99.99997,100 z"/></g><g transform="translate(274.354 439.724) rotate(-26.915) scale(0.206225)"><path d="M 301.6688,0 C 235.98494,2.5000207e-4 170.30252,22.6425 115.68532,67.9235 6.450321,158.4855 -30.346199,316.2496 26.522801,450.22575 c 21.832,51.43145 40.0473,104.32008 54.5083,158.29008 L 145.73517,849.9998 c 102.8077,-21.852 209.05957,-21.852 311.86727,0 L 522.3065,608.51583 c 14.461,-53.97 32.6763,-106.85848 54.5083,-158.29008 56.869,-133.976 20.07248,-291.74541 -89.16252,-382.30741 C 433.03493,22.63734 367.35266,-2.4999793e-4 301.6688,0 Z m 0,99.99907 c 88.9367,0 167.18779,73.41038 192.03479,180.15438 24.847,106.744 -9.68085,221.17596 -84.73385,280.82006 C 353.75215,604.85551 315.7617,666.78924 301.6688,735.89824 287.5759,666.78924 249.58546,604.85551 194.36786,560.97351 119.31486,501.32941 84.787011,386.89745 109.63401,280.15345 134.48101,173.40945 212.7321,99.99907 301.6688,99.99907 Z"/><path d="m 301.66897,479.99939 c 55.22843,0 100.00003,-44.7715 100.00003,-99.9999 0,-99.4111 -44.7715,-180.0001 -99.99998,-180.0001 -55.22852,0 -100.00002,80.589 -100.00002,180 0,55.2285 44.7715,100 99.99997,100 z"/></g><g transform="translate(450.415 373.117) rotate(-2.615) scale(0.206225)"><path d="M 301.6688,0 C 235.98494,2.5000207e-4 170.30252,22.6425 115.68532,67.9235 6.450321,158.4855 -30.346199,316.2496 26.522801,450.22575 c 21.832,51.43145 40.0473,104.32008 54.5083,158.29008 L 145.73517,849.9998 c 102.8077,-21.852 209.05957,-21.852 311.86727,0 L 522.3065,608.51583 c 14.461,-53.97 32.6763,-106.85848 54.5083,-158.29008 56.869,-133.976 20.07248,-291.74541 -89.16252,-382.30741 C 433.03493,22.63734 367.35266,-2.4999793e-4 301.6688,0 Z m 0,99.99907 c 88.9367,0 167.18779,73.41038 192.03479,180.15438 24.847,106.744 -9.68085,221.17596 -84.73385,280.82006 C 353.75215,604.85551 315.7617,666.78924 301.6688,735.89824 287.5759,666.78924 249.58546,604.85551 194.36786,560.97351 119.31486,501.32941 84.787011,386.89745 109.63401,280.15345 134.48101,173.40945 212.7321,99.99907 301.6688,99.99907 Z"/><path d="m 301.66897,479.99939 c 55.22843,0 100.00003,-44.7715 100.00003,-99.9999 0,-99.4111 -44.7715,-180.0001 -99.99998,-180.0001 -55.22852,0 -100.00002,80.589 -100.00002,180 0,55.2285 44.7715,100 99.99997,100 z"/></g><g transform="translate(638.287 384.863) rotate(21.685) scale(0.206225)"><path d="M 301.6688,0 C 235.98494,2.5000207e-4 170.30252,22.6425 115.68532,67.9235 6.450321,158.4855 -30.346199,316.2496 26.522801,450.22575 c 21.832,51.43145 40.0473,104.32008 54.5083,158.29008 L 145.73517,849.9998 c 102.8077,-21.852 209.05957,-21.852 311.86727,0 L 522.3065,608.51583 c 14.461,-53.97 32.6763,-106.85848 54.5083,-158.29008 56.869,-133.976 20.07248,-291.74541 -89.16252,-382.30741 C 433.03493,22.63734 367.35266,-2.4999793e-4 301.6688,0 Z m 0,99.99907 c 88.9367,0 167.18779,73.41038 192.03479,180.15438 24.847,106.744 -9.68085,221.17596 -84.73385,280.82006 C 353.75215,604.85551 315.7617,666.78924 301.6688,735.89824 287.5759,666.78924 249.58546,604.85551 194.36786,560.97351 119.31486,501.32941 84.787011,386.89745 109.63401,280.15345 134.48101,173.40945 212.7321,99.99907 301.6688,99.99907 Z"/><path d="m 301.66897,479.99939 c 55.22843,0 100.00003,-44.7715 100.00003,-99.9999 0,-99.4111 -44.7715,-180.0001 -99.99998,-180.0001 -55.22852,0 -100.00002,80.589 -100.00002,180 0,55.2285 44.7715,100 99.99997,100 z"/></g><g transform="translate(804.68 472.88) rotate(45.985) scale(0.206225)"><path d="M 301.6688,0 C 235.98494,2.5000207e-4 170.30252,22.6425 115.68532,67.9235 6.450321,158.4855 -30.346199,316.2496 26.522801,450.22575 c 21.832,51.43145 40.0473,104.32008 54.5083,158.29008 L 145.73517,849.9998 c 102.8077,-21.852 209.05957,-21.852 311.86727,0 L 522.3065,608.51583 c 14.461,-53.97 32.6763,-106.85848 54.5083,-158.29008 56.869,-133.976 20.07248,-291.74541 -89.16252,-382.30741 C 433.03493,22.63734 367.35266,-2.4999793e-4 301.6688,0 Z m 0,99.99907 c 88.9367,0 167.18779,73.41038 192.03479,180.15438 24.847,106.744 -9.68085,221.17596 -84.73385,280.82006 C 353.75215,604.85551 315.7617,666.78924 301.6688,735.89824 287.5759,666.78924 249.58546,604.85551 194.36786,560.97351 119.31486,501.32941 84.787011,386.89745 109.63401,280.15345 134.48101,173.40945 212.7321,99.99907 301.6688,99.99907 Z"/><path d="m 301.66897,479.99939 c 55.22843,0 100.00003,-44.7715 100.00003,-99.9999 0,-99.4111 -44.7715,-180.0001 -99.99998,-180.0001 -55.22852,0 -100.00002,80.589 -100.00002,180 0,55.2285 44.7715,100 99.99997,100 z"/></g><g transform="translate(920.112 621.573) rotate(70.285) scale(0.206225)"><path d="M 301.6688,0 C 235.98494,2.5000207e-4 170.30252,22.6425 115.68532,67.9235 6.450321,158.4855 -30.346199,316.2496 26.522801,450.22575 c 21.832,51.43145 40.0473,104.32008 54.5083,158.29008 L 145.73517,849.9998 c 102.8077,-21.852 209.05957,-21.852 311.86727,0 L 522.3065,608.51583 c 14.461,-53.97 32.6763,-106.85848 54.5083,-158.29008 56.869,-133.976 20.07248,-291.74541 -89.16252,-382.30741 C 433.03493,22.63734 367.35266,-2.4999793e-4 301.6688,0 Z m 0,99.99907 c 88.9367,0 167.18779,73.41038 192.03479,180.15438 24.847,106.744 -9.68085,221.17596 -84.73385,280.82006 C 353.75215,604.85551 315.7617,666.78924 301.6688,735.89824 287.5759,666.78924 249.58546,604.85551 194.36786,560.97351 119.31486,501.32941 84.787011,386.89745 109.63401,280.15345 134.48101,173.40945 212.7321,99.99907 301.6688,99.99907 Z"/><path d="m 301.66897,479.99939 c 55.22843,0 100.00003,-44.7715 100.00003,-99.9999 0,-99.4111 -44.7715,-180.0001 -99.99998,-180.0001 -55.22852,0 -100.00002,80.589 -100.00002,180 0,55.2285 44.7715,100 99.99997,100 z"/></g><g transform="translate(964.127 804.593) rotate(94.585) scale(0.206225)"><path d="M 301.6688,0 C 235.98494,2.5000207e-4 170.30252,22.6425 115.68532,67.9235 6.450321,158.4855 -30.346199,316.2496 26.522801,450.22575 c 21.832,51.43145 40.0473,104.32008 54.5083,158.29008 L 145.73517,849.9998 c 102.8077,-21.852 209.05957,-21.852 311.86727,0 L 522.3065,608.51583 c 14.461,-53.97 32.6763,-106.85848 54.5083,-158.29008 56.869,-133.976 20.07248,-291.74541 -89.16252,-382.30741 C 433.03493,22.63734 367.35266,-2.4999793e-4 301.6688,0 Z m 0,99.99907 c 88.9367,0 167.18779,73.41038 192.03479,180.15438 24.847,106.744 -9.68085,221.17596 -84.73385,280.82006 C 353.75215,604.85551 315.7617,666.78924 301.6688,735.89824 287.5759,666.78924 249.58546,604.85551 194.36786,560.97351 119.31486,501.32941 84.787011,386.89745 109.63401,280.15345 134.48101,173.40945 212.7321,99.99907 301.6688,99.99907 Z"/><path d="m 301.66897,479.99939 c 55.22843,0 100.00003,-44.7715 100.00003,-99.9999 0,-99.4111 -44.7715,-180.0001 -99.99998,-180.0001 -55.22852,0 -100.00002,80.589 -100.00002,180 0,55.2285 44.7715,100 99.99997,100 z"/></g><g transform="translate(516.74941 789.61) scale(0.2114) translate(-350.0 0)"><path d="m 350,863.224 c 12.4356,0 24.1638,-5.784 31.7341,-15.65 C 423.5363,793.096 472.299,744.333 526.777,702.531 635.981,618.734 700,488.9147 700,351.2655 700,213.616 635.981,83.797 526.777,0 429.1456,97.631 270.8544,97.631 173.223,0 64.019,83.797 0,213.616 0,351.2655 0,488.9147 64.019,618.734 173.223,702.531 c 54.478,41.802 103.2407,90.565 145.0429,145.043 7.5703,9.866 19.2985,15.65 31.7341,15.65 z"/></g><g transform="translate(516.74941 732.81) scale(0.2032) translate(-1016.19935 -323.88462)"><path d="m 1016.1993,187.07656 c -75.62557,0 -144.78397,42.6561 -178.72497,110.2372 C 678.00433,148.95356 480.05633,48.386562 266.19933,7.0765623 124.38133,-20.318438 13.279329,33.742562 1.0993288,136.07256 c -12.1799998,102.33 77.9640002,224.2863 215.1000012,291.004 3.14,71.681 39.44,137.825 98.22,178.971 58.78,41.147 133.353,52.614 201.78,31.029 114.836,-36.226 223.254,-90.3 321.275,-160.238 33.941,67.581 103.0994,110.238 178.72497,110.238 75.6256,0 144.784,-42.657 178.725,-110.238 98.021,69.938 206.439,124.012 321.275,160.238 68.427,21.585 143,10.118 201.78,-31.029 58.78,-41.146 95.08,-107.29 98.22,-178.971 137.136,-66.7177 227.28,-188.674 215.1,-291.004 -12.18,-102.329998 -123.282,-156.390998 -265.1,-128.9959977 -213.857,41.3099997 -411.805,141.8769977 -571.275,290.2371977 -33.941,-67.5811 -103.0994,-110.2372 -178.725,-110.2372 z" fill-rule="evenodd"/></g><g transform="translate(516.74941 707.65) scale(0.2039) translate(-370.00805 -495.62199)"><path d="m 370.00806,393.9 c -80.8313,0 -157.065,37.594 -206.272,101.722 -60.965,-62.312 -94.68,-146.289 -93.728,-233.4589 0.345,-31.5606 -19.672,-59.7539 -49.582,-69.8344 C 4.7260595,187.0369 -3.7119405,170.0191 1.5790595,154.3184 6.8710595,138.618 23.88906,130.179 39.59006,135.471 c 54.543,18.3834 91.047,69.7974 90.418,127.3524 -0.219,20.054 10.277,38.7016 27.535,48.9183 38.673,22.8944 87.371,20.0231 123.0852,-7.2571 35.7142,-27.2802 51.2948,-73.508 39.3798,-116.841 -1.9832,-7.2127 -7.6637,-12.8194 -14.9016,-14.7082 -7.238,-1.8889 -14.9338,0.2272 -20.1885,5.551 -13.5788,13.7574 -35.7389,13.9021 -49.4969,0.3234 -13.757,-13.5788 -13.902,-35.7388 -0.323,-49.4968 13.579,-13.757 35.7392,-13.902 49.4965,-0.323 9.3249,9.204 24.1735,9.647 34.0308,1.016 9.8573,-8.631 11.379,-23.408 3.4874,-33.867 -13.7074,-18.166 -15.9572,-42.524 -5.8092,-62.894 C 326.45156,12.875 347.25036,0 370.00806,0 c 22.7577,0 43.5565,12.875 53.7045,33.245 10.148,20.37 7.8982,44.728 -5.8092,62.894 -7.8916,10.459 -6.3699,25.236 3.4874,33.867 9.8573,8.631 24.7059,8.188 34.0308,-1.016 13.7573,-13.579 35.9175,-13.434 49.4965,0.323 13.579,13.758 13.434,35.918 -0.323,49.4968 -13.758,13.5787 -35.9181,13.434 -49.4969,-0.3234 -5.2547,-5.3238 -12.9505,-7.4399 -20.1885,-5.551 -7.2379,1.8888 -12.9184,7.4955 -14.9016,14.7082 -11.915,43.333 3.6656,89.5608 39.3798,116.841 35.7142,27.2802 84.4122,30.1515 123.0852,7.2571 17.258,-10.2167 27.754,-28.8643 27.535,-48.9183 -0.629,-57.555 35.875,-108.969 90.418,-127.3524 15.701,-5.292 32.719,3.147 38.011,18.8474 5.291,15.7007 -3.147,32.7185 -18.847,38.0103 -29.91,10.0805 -49.927,38.2738 -49.582,69.8344 0.952,87.1699 -32.763,171.1469 -93.728,233.4589 C 527.07306,431.494 450.83936,393.9 370.00806,393.9 Z"/></g></g>
</svg>